<svg width="17" height="17" viewBox="0 0 17 17" fill="none" xmlns="http://www.w3.org/2000/svg">
<path d="M13.0034 15.78H11.0834C10.9767 15.78 10.8701 15.8333 10.7634 15.94C10.6567 16.0467 10.6034 16.1622 10.6034 16.2867C10.6034 16.4111 10.6567 16.5178 10.7634 16.6067C10.8701 16.6955 10.9767 16.74 11.0834 16.74H13.0034C13.1456 16.74 13.2612 16.6955 13.3501 16.6067C13.4389 16.5178 13.4834 16.4111 13.4834 16.2867C13.4834 16.1622 13.4389 16.0467 13.3501 15.94C13.2612 15.8333 13.1456 15.78 13.0034 15.78ZM9.21673 15.78H7.35006C7.20784 15.78 7.09228 15.8333 7.00339 15.94C6.9145 16.0467 6.87006 16.1622 6.87006 16.2867C6.87006 16.4111 6.9145 16.5178 7.00339 16.6067C7.09228 16.6955 7.20784 16.74 7.35006 16.74H9.21673C9.35895 16.74 9.4745 16.6955 9.56339 16.6067C9.65228 16.5178 9.69673 16.4111 9.69673 16.2867C9.69673 16.1622 9.65228 16.0467 9.56339 15.94C9.4745 15.8333 9.35895 15.78 9.21673 15.78ZM15.8301 7.29999C15.7234 7.29999 15.6167 7.34443 15.5101 7.43332C15.4034 7.52221 15.3501 7.63777 15.3501 7.77999V9.64666C15.3501 9.78888 15.4034 9.90443 15.5101 9.99332C15.6167 10.0822 15.7323 10.1267 15.8567 10.1267C15.9812 10.1267 16.0878 10.0822 16.1767 9.99332C16.2656 9.90443 16.3101 9.78888 16.3101 9.64666V7.77999C16.3101 7.63777 16.2656 7.52221 16.1767 7.43332C16.0878 7.34443 15.9723 7.29999 15.8301 7.29999ZM15.8301 11.0333C15.7234 11.0333 15.6167 11.0867 15.5101 11.1933C15.4034 11.3 15.3501 11.4067 15.3501 11.5133V13.38C15.3501 13.5222 15.4034 13.6378 15.5101 13.7267C15.6167 13.8155 15.7323 13.86 15.8567 13.86C15.9812 13.86 16.0878 13.8155 16.1767 13.7267C16.2656 13.6378 16.3101 13.5222 16.3101 13.38V11.5133C16.3101 11.4067 16.2656 11.3 16.1767 11.1933C16.0878 11.0867 15.9723 11.0333 15.8301 11.0333ZM5.48339 15.78H5.00339V15.3533C5.00339 15.2111 4.95895 15.0955 4.87006 15.0067C4.78117 14.9178 4.66561 14.8733 4.52339 14.8733C4.38117 14.8733 4.26561 14.9178 4.17673 15.0067C4.08784 15.0955 4.04339 15.2111 4.04339 15.3533V16.26C4.04339 16.4022 4.08784 16.5178 4.17673 16.6067C4.26561 16.6955 4.38117 16.74 4.52339 16.74H5.48339C5.59006 16.74 5.68784 16.6955 5.77673 16.6067C5.86561 16.5178 5.91006 16.4111 5.91006 16.2867C5.91006 16.1622 5.86561 16.0467 5.77673 15.94C5.68784 15.8333 5.59006 15.78 5.48339 15.78ZM15.8301 4.47332H14.9234C14.7812 4.47332 14.6656 4.51777 14.5767 4.60666C14.4878 4.69555 14.4434 4.8111 14.4434 4.95332C14.4434 5.09555 14.4878 5.2111 14.5767 5.29999C14.6656 5.38888 14.7812 5.43332 14.9234 5.43332H15.3501V5.91332C15.3501 6.01999 15.4034 6.11777 15.5101 6.20666C15.6167 6.29555 15.7323 6.33999 15.8567 6.33999C15.9812 6.33999 16.0878 6.29555 16.1767 6.20666C16.2656 6.11777 16.3101 6.01999 16.3101 5.91332V4.95332C16.3101 4.8111 16.2656 4.69555 16.1767 4.60666C16.0878 4.51777 15.9723 4.47332 15.8301 4.47332ZM15.8301 14.8733C15.7234 14.8733 15.6167 14.9178 15.5101 15.0067C15.4034 15.0955 15.3501 15.2111 15.3501 15.3533V15.78H14.9234C14.7812 15.78 14.6656 15.8333 14.5767 15.94C14.4878 16.0467 14.4434 16.1622 14.4434 16.2867C14.4434 16.4111 14.4878 16.5178 14.5767 16.6067C14.6656 16.6955 14.7812 16.74 14.9234 16.74H15.8301C15.9723 16.74 16.0878 16.6955 16.1767 16.6067C16.2656 16.5178 16.3101 16.4022 16.3101 16.26V15.3533C16.3101 15.2111 16.2656 15.0955 16.1767 15.0067C16.0878 14.9178 15.9723 14.8733 15.8301 14.8733ZM13.0034 4.47332H12.5234V1.21999C12.5234 1.07777 12.4701 0.962212 12.3634 0.873323C12.2567 0.784434 12.1501 0.73999 12.0434 0.73999H0.790059C0.647836 0.73999 0.532281 0.784434 0.443392 0.873323C0.354503 0.962212 0.310059 1.07777 0.310059 1.21999V12.4733C0.310059 12.58 0.354503 12.6867 0.443392 12.7933C0.532281 12.9 0.647836 12.9533 0.790059 12.9533H4.04339V13.38C4.04339 13.5222 4.08784 13.6378 4.17673 13.7267C4.26561 13.8155 4.38117 13.86 4.52339 13.86C4.66561 13.86 4.78117 13.8155 4.87006 13.7267C4.95895 13.6378 5.00339 13.5222 5.00339 13.38V5.43332H13.0034C13.1456 5.43332 13.2612 5.38888 13.3501 5.29999C13.4389 5.2111 13.4834 5.09555 13.4834 4.95332C13.4834 4.8111 13.4389 4.69555 13.3501 4.60666C13.2612 4.51777 13.1456 4.47332 13.0034 4.47332ZM11.5634 4.47332H4.52339C4.38117 4.47332 4.26561 4.51777 4.17673 4.60666C4.08784 4.69555 4.04339 4.8111 4.04339 4.95332V11.9933H1.27006V1.69999H11.5634V4.47332Z" fill="#1A1A1A"/>
</svg>
