<svg width="16" height="14" viewBox="0 0 16 14" fill="none" xmlns="http://www.w3.org/2000/svg">
<g clip-path="url(#clip0_2_1834)">
<path d="M1.37744 6.78861H13.3881L8.78902 2.40937C8.5482 2.18004 8.53887 1.79906 8.76825 1.55831C8.99733 1.31786 9.37842 1.30823 9.61954 1.53755L14.8719 6.53913C15.0991 6.76663 15.2247 7.06878 15.2247 7.39048C15.2247 7.71188 15.0991 8.01433 14.8613 8.25176L9.61925 13.2431C9.50275 13.3541 9.35344 13.4092 9.20413 13.4092C9.04519 13.4092 8.88625 13.3466 8.76795 13.2224C8.53857 12.9816 8.5479 12.6009 8.78872 12.3716L13.4071 7.99236H1.37744C1.04511 7.99236 0.775391 7.72272 0.775391 7.39048C0.775391 7.05825 1.04511 6.78861 1.37744 6.78861Z" fill="#211E1E"/>
</g>
<defs>
<clipPath id="clip0_2_1834">
<rect width="15" height="12.84" fill="white" transform="translate(0.5 0.970215)"/>
</clipPath>
</defs>
</svg>
