<svg width="16" height="17" viewBox="0 0 16 17" fill="none" xmlns="http://www.w3.org/2000/svg">
<path d="M10.9333 0.846634C9.86667 0.846634 8.88889 1.16663 8 1.80663C7.11111 1.16663 6.13333 0.846634 5.06667 0.846634C4.14222 0.846634 3.29778 1.07774 2.53333 1.53997C1.76889 2.00219 1.15556 2.61552 0.693333 3.37997C0.231111 4.14441 0 4.98886 0 5.9133C0 7.79774 1.35111 10.1266 4.05333 12.9C4.87111 13.7533 5.77778 14.6066 6.77333 15.46C7.27111 15.8866 7.69778 16.2244 8.05333 16.4733C8.16 16.58 8.28444 16.6333 8.42667 16.6333C8.56889 16.6333 8.69333 16.58 8.8 16.4733C9.40444 15.94 10.0622 15.3 10.7733 14.5533C12.1956 13.1311 13.3333 11.78 14.1867 10.5C15.3956 8.72219 16 7.1933 16 5.9133C16 4.98886 15.7689 4.14441 15.3067 3.37997C14.8444 2.61552 14.2311 2.00219 13.4667 1.53997C12.7022 1.07774 11.8578 0.846634 10.9333 0.846634ZM8.37333 15.1933C6.70222 13.8777 5.22667 12.4733 3.94667 10.98C2.13333 8.88219 1.22667 7.1933 1.22667 5.9133C1.22667 5.23775 1.39556 4.60663 1.73333 4.01997C2.07111 3.4333 2.53333 2.96219 3.12 2.60663C3.70667 2.25108 4.35556 2.0733 5.06667 2.0733C6.02667 2.0733 6.86222 2.3933 7.57333 3.0333H7.62667C7.73333 3.13997 7.86667 3.1933 8.02667 3.1933C8.18667 3.1933 8.32 3.13997 8.42667 3.0333C9.13778 2.3933 9.97333 2.0733 10.9333 2.0733C11.6444 2.0733 12.2933 2.25108 12.88 2.60663C13.4667 2.96219 13.9289 3.4333 14.2667 4.01997C14.6044 4.60663 14.7733 5.23775 14.7733 5.9133C14.7733 7.1933 13.9733 8.88219 12.3733 10.98C11.2 12.4377 9.86667 13.8422 8.37333 15.1933Z" fill="#1A1A1A"/>
</svg>
