<svg width="18" height="21" viewBox="0 0 18 21" fill="none" xmlns="http://www.w3.org/2000/svg">
<path d="M15.1334 3.12342C14.2889 2.32342 13.3445 1.7012 12.3 1.25675C11.2556 0.812309 10.1556 0.590086 9.00004 0.590086C7.84449 0.590086 6.73337 0.812309 5.66671 1.25675C4.60004 1.7012 3.66671 2.32342 2.86671 3.12342C2.06671 3.92342 1.44449 4.85675 1.00004 5.92342C0.555596 6.99009 0.333374 8.1012 0.333374 9.25675C0.333374 10.4123 0.555596 11.5123 1.00004 12.5568C1.44449 13.6012 2.06671 14.5456 2.86671 15.3901L7.46671 19.9901C7.86671 20.3901 8.36671 20.5901 8.96671 20.5901C9.56671 20.5901 10.0889 20.3901 10.5334 19.9901L15.1334 15.3901C15.9334 14.5456 16.5556 13.6012 17 12.5568C17.4445 11.5123 17.6667 10.4123 17.6667 9.25675C17.6667 8.1012 17.4445 6.99009 17 5.92342C16.5556 4.85675 15.9334 3.92342 15.1334 3.12342ZM14.2667 14.5234L9.66671 19.1234C9.48893 19.3012 9.26671 19.3901 9.00004 19.3901C8.73337 19.3901 8.48893 19.3012 8.26671 19.1234L3.66671 14.5234C2.9556 13.8123 2.42226 13.0012 2.06671 12.0901C1.71115 11.179 1.53337 10.2234 1.53337 9.22342C1.53337 8.22342 1.71115 7.26787 2.06671 6.35675C2.42226 5.44564 2.9556 4.64564 3.66671 3.95675C4.37782 3.26786 5.18893 2.73453 6.10004 2.35675C7.01115 1.97898 7.96671 1.79009 8.96671 1.79009C9.96671 1.79009 10.9223 1.97898 11.8334 2.35675C12.7445 2.73453 13.5556 3.25675 14.2667 3.92342C15.2445 4.9012 15.9 6.03453 16.2334 7.32342C16.5667 8.61231 16.5667 9.9012 16.2334 11.1901C15.9 12.479 15.2445 13.5901 14.2667 14.5234ZM9.00004 6.12342C8.1556 6.12342 7.42226 6.43453 6.80004 7.05675C6.17782 7.67898 5.86671 8.41231 5.86671 9.25675C5.86671 10.1012 6.17782 10.8234 6.80004 11.4234C7.42226 12.0234 8.1556 12.3234 9.00004 12.3234C9.84449 12.3234 10.5667 12.0234 11.1667 11.4234C11.7667 10.8234 12.0667 10.1012 12.0667 9.25675C12.0667 8.41231 11.7667 7.67898 11.1667 7.05675C10.5667 6.43453 9.84449 6.12342 9.00004 6.12342ZM9.00004 11.1901C8.46671 11.1901 8.01115 11.0012 7.63337 10.6234C7.2556 10.2456 7.06671 9.79009 7.06671 9.25675C7.06671 8.72342 7.2556 8.26787 7.63337 7.89009C8.01115 7.51231 8.46671 7.32342 9.00004 7.32342C9.53337 7.32342 9.98893 7.51231 10.3667 7.89009C10.7445 8.26787 10.9334 8.72342 10.9334 9.25675C10.9334 9.79009 10.7445 10.2456 10.3667 10.6234C9.98893 11.0012 9.53337 11.1901 9.00004 11.1901Z" fill="#1A1A1A"/>
</svg>
