<svg width="14" height="17" viewBox="0 0 14 17" fill="none" xmlns="http://www.w3.org/2000/svg">
<path d="M11.9069 2.63677C11.2313 1.99677 10.4758 1.499 9.64023 1.14344C8.80467 0.787885 7.92467 0.610107 7.00023 0.610107C6.07578 0.610107 5.18689 0.787885 4.33356 1.14344C3.48023 1.499 2.73356 1.99677 2.09356 2.63677C1.45356 3.27677 0.955783 4.02344 0.600228 4.87677C0.244672 5.73011 0.0668945 6.619 0.0668945 7.54344C0.0668945 8.46789 0.244672 9.34789 0.600228 10.1834C0.955783 11.019 1.45356 11.7746 2.09356 12.4501L5.77356 16.1301C6.09356 16.4501 6.49356 16.6101 6.97356 16.6101C7.45356 16.6101 7.87134 16.4501 8.22689 16.1301L11.9069 12.4501C12.5469 11.7746 13.0447 11.019 13.4002 10.1834C13.7558 9.34789 13.9336 8.46789 13.9336 7.54344C13.9336 6.619 13.7558 5.73011 13.4002 4.87677C13.0447 4.02344 12.5469 3.27677 11.9069 2.63677ZM11.2136 11.7568L7.53356 15.4368C7.39134 15.579 7.21356 15.6501 7.00023 15.6501C6.78689 15.6501 6.59134 15.579 6.41356 15.4368L2.73356 11.7568C2.16467 11.1879 1.73801 10.539 1.45356 9.81011C1.16912 9.08122 1.02689 8.31677 1.02689 7.51677C1.02689 6.71677 1.16912 5.95233 1.45356 5.22344C1.73801 4.49455 2.16467 3.85455 2.73356 3.30344C3.30245 2.75233 3.95134 2.32566 4.68023 2.02344C5.40912 1.72122 6.17356 1.57011 6.97356 1.57011C7.77356 1.57011 8.53801 1.72122 9.26689 2.02344C9.99578 2.32566 10.6447 2.74344 11.2136 3.27677C11.9958 4.059 12.5202 4.96566 12.7869 5.99677C13.0536 7.02789 13.0536 8.059 12.7869 9.09011C12.5202 10.1212 11.9958 11.0101 11.2136 11.7568ZM7.00023 5.03677C6.32467 5.03677 5.73801 5.28566 5.24023 5.78344C4.74245 6.28122 4.49356 6.86788 4.49356 7.54344C4.49356 8.219 4.74245 8.79677 5.24023 9.27677C5.73801 9.75677 6.32467 9.99677 7.00023 9.99677C7.67578 9.99677 8.25356 9.75677 8.73356 9.27677C9.21356 8.79677 9.45356 8.219 9.45356 7.54344C9.45356 6.86788 9.21356 6.28122 8.73356 5.78344C8.25356 5.28566 7.67578 5.03677 7.00023 5.03677ZM7.00023 9.09011C6.57356 9.09011 6.20912 8.939 5.90689 8.63677C5.60467 8.33455 5.45356 7.97011 5.45356 7.54344C5.45356 7.11677 5.60467 6.75233 5.90689 6.45011C6.20912 6.14789 6.57356 5.99677 7.00023 5.99677C7.42689 5.99677 7.79134 6.14789 8.09356 6.45011C8.39578 6.75233 8.5469 7.11677 8.5469 7.54344C8.5469 7.97011 8.39578 8.33455 8.09356 8.63677C7.79134 8.939 7.42689 9.09011 7.00023 9.09011Z" fill="#1A1A1A"/>
</svg>
