<svg width="18" height="21" viewBox="0 0 18 21" fill="none" xmlns="http://www.w3.org/2000/svg">
<path d="M15.1334 2.56336C14.2889 1.76336 13.3445 1.14114 12.3 0.696695C11.2556 0.252251 10.1556 0.0300274 9.00004 0.0300274C7.84449 0.0300274 6.73337 0.252251 5.66671 0.696695C4.60004 1.14114 3.66671 1.76336 2.86671 2.56336C2.06671 3.36336 1.44449 4.29669 1.00004 5.36336C0.555596 6.43003 0.333374 7.54114 0.333374 8.6967C0.333374 9.85225 0.555596 10.9523 1.00004 11.9967C1.44449 13.0411 2.06671 13.9856 2.86671 14.83L7.46671 19.43C7.86671 19.83 8.36671 20.03 8.96671 20.03C9.56671 20.03 10.0889 19.83 10.5334 19.43L15.1334 14.83C15.9334 13.9856 16.5556 13.0411 17 11.9967C17.4445 10.9523 17.6667 9.85225 17.6667 8.6967C17.6667 7.54114 17.4445 6.43003 17 5.36336C16.5556 4.29669 15.9334 3.36336 15.1334 2.56336ZM14.2667 13.9634L9.66671 18.5634C9.48893 18.7411 9.26671 18.83 9.00004 18.83C8.73337 18.83 8.48893 18.7411 8.26671 18.5634L3.66671 13.9634C2.9556 13.2523 2.42226 12.4411 2.06671 11.53C1.71115 10.6189 1.53337 9.66336 1.53337 8.66336C1.53337 7.66336 1.71115 6.70781 2.06671 5.79669C2.42226 4.88558 2.9556 4.08558 3.66671 3.39669C4.37782 2.70781 5.18893 2.17447 6.10004 1.7967C7.01115 1.41892 7.96671 1.23003 8.96671 1.23003C9.96671 1.23003 10.9223 1.41892 11.8334 1.7967C12.7445 2.17447 13.5556 2.6967 14.2667 3.36336C15.2445 4.34114 15.9 5.47447 16.2334 6.76336C16.5667 8.05225 16.5667 9.34114 16.2334 10.63C15.9 11.9189 15.2445 13.03 14.2667 13.9634ZM9.00004 5.56336C8.1556 5.56336 7.42226 5.87447 6.80004 6.4967C6.17782 7.11892 5.86671 7.85225 5.86671 8.6967C5.86671 9.54114 6.17782 10.2634 6.80004 10.8634C7.42226 11.4634 8.1556 11.7634 9.00004 11.7634C9.84449 11.7634 10.5667 11.4634 11.1667 10.8634C11.7667 10.2634 12.0667 9.54114 12.0667 8.6967C12.0667 7.85225 11.7667 7.11892 11.1667 6.4967C10.5667 5.87447 9.84449 5.56336 9.00004 5.56336ZM9.00004 10.63C8.46671 10.63 8.01115 10.4411 7.63337 10.0634C7.2556 9.68558 7.06671 9.23003 7.06671 8.6967C7.06671 8.16336 7.2556 7.70781 7.63337 7.33003C8.01115 6.95225 8.46671 6.76336 9.00004 6.76336C9.53337 6.76336 9.98893 6.95225 10.3667 7.33003C10.7445 7.70781 10.9334 8.16336 10.9334 8.6967C10.9334 9.23003 10.7445 9.68558 10.3667 10.0634C9.98893 10.4411 9.53337 10.63 9.00004 10.63Z" fill="#1A1A1A"/>
</svg>
