<svg width="11" height="14" viewBox="0 0 11 14" fill="none" xmlns="http://www.w3.org/2000/svg">
<path d="M6.23746 13.2591C5.35696 13.2591 4.56196 13.1162 3.85021 12.8304C3.14671 12.5374 2.54521 12.1307 2.04646 11.6104C1.55521 11.0902 1.17721 10.4785 0.913212 9.77505C0.649212 9.0717 0.517212 8.3133 0.517212 7.5V7.06042C0.517212 6.1299 0.652961 5.28727 0.924461 4.53255C1.19596 3.7779 1.57321 3.13312 2.05771 2.59822C2.54146 2.05605 3.11372 1.64205 3.77372 1.3563C4.43297 1.07055 5.14846 0.927673 5.91796 0.927673C6.76921 0.927673 7.51321 1.07055 8.15146 1.3563C8.78896 1.64205 9.31697 2.04502 9.73472 2.5653C10.16 3.07815 10.4757 3.69 10.6812 4.4007C10.8935 5.1114 11 5.89537 11 6.7527V7.88467H1.80421V5.98335H8.38246V5.77455C8.36746 5.29822 8.27222 4.8513 8.09597 4.4337C7.92722 4.01602 7.66697 3.67897 7.31522 3.42255C6.96347 3.16612 6.49397 3.03787 5.90747 3.03787C5.46722 3.03787 5.07497 3.13312 4.72997 3.32362C4.39322 3.50677 4.11047 3.77422 3.88322 4.1259C3.65597 4.47765 3.47972 4.9026 3.35522 5.40082C3.23822 5.89177 3.17971 6.4449 3.17971 7.06042V7.5C3.17971 8.02027 3.24871 8.5038 3.38821 8.9508C3.53521 9.39037 3.74746 9.77505 4.02646 10.1047C4.30471 10.4345 4.64221 10.6946 5.03821 10.8851C5.43421 11.0683 5.88496 11.1598 6.39121 11.1598C7.02946 11.1598 7.59722 11.0317 8.09597 10.7752C8.59472 10.5187 9.02746 10.156 9.39421 9.68715L10.7907 11.0389C10.5342 11.4127 10.2005 11.7717 9.79021 12.116C9.37921 12.4531 8.87672 12.7279 8.28347 12.9403C7.69622 13.1528 7.01446 13.2591 6.23746 13.2591Z" fill="#A79797"/>
</svg>
