<svg width="12" height="14" viewBox="0 0 12 14" fill="none" xmlns="http://www.w3.org/2000/svg">
<path d="M0.0805664 7.22527V6.97245C0.0805664 6.1152 0.205067 5.3202 0.454067 4.58752C0.703817 3.8475 1.06307 3.2064 1.53257 2.66422C2.00882 2.1147 2.58856 1.68967 3.27031 1.3893C3.95956 1.08157 4.73657 0.927673 5.60207 0.927673C6.47432 0.927673 7.25206 1.08157 7.93381 1.3893C8.62306 1.68967 9.20656 2.1147 9.68281 2.66422C10.1598 3.2064 10.5228 3.8475 10.7718 4.58752C11.0208 5.3202 11.1461 6.1152 11.1461 6.97245V7.22527C11.1461 8.08252 11.0208 8.87752 10.7718 9.6102C10.5228 10.3429 10.1598 10.984 9.68281 11.5336C9.20656 12.0757 8.62681 12.5007 7.94506 12.8084C7.26331 13.1089 6.48931 13.2591 5.62381 13.2591C4.75156 13.2591 3.97082 13.1089 3.28082 12.8084C2.59907 12.5007 2.02006 12.0757 1.54306 11.5336C1.06681 10.984 0.703817 10.3429 0.454067 9.6102C0.205067 8.87752 0.0805664 8.08252 0.0805664 7.22527ZM2.73106 6.97245V7.22527C2.73106 7.7601 2.78656 8.26567 2.89606 8.74192C3.00631 9.21817 3.17881 9.63585 3.41281 9.99487C3.64756 10.3539 3.94831 10.636 4.31506 10.8412C4.68181 11.0463 5.11831 11.1489 5.62381 11.1489C6.11506 11.1489 6.54032 11.0463 6.90032 10.8412C7.26632 10.636 7.56707 10.3539 7.80182 9.99487C8.03657 9.63585 8.20906 9.21817 8.31856 8.74192C8.43631 8.26567 8.49481 7.7601 8.49481 7.22527V6.97245C8.49481 6.4449 8.43631 5.94667 8.31856 5.47777C8.20906 5.00152 8.03281 4.58017 7.79131 4.21387C7.55656 3.8475 7.25582 3.56175 6.88907 3.35662C6.52982 3.14407 6.10082 3.03787 5.60207 3.03787C5.10332 3.03787 4.67056 3.14407 4.30381 3.35662C3.94456 3.56175 3.64756 3.8475 3.41281 4.21387C3.17881 4.58017 3.00631 5.00152 2.89606 5.47777C2.78656 5.94667 2.73106 6.4449 2.73106 6.97245Z" fill="#A79797"/>
</svg>
