<svg width="18" height="19" viewBox="0 0 18 19" fill="none" xmlns="http://www.w3.org/2000/svg">
<path d="M9.00994 12.69C9.12994 12.69 9.21994 12.66 9.27994 12.6C9.33994 12.54 9.36994 12.45 9.36994 12.33V10.71C9.36994 10.55 9.30994 10.44 9.18994 10.38C9.06994 10.32 8.94994 10.32 8.82994 10.38C8.70994 10.44 8.64994 10.55 8.64994 10.71V12.33C8.64994 12.45 8.68994 12.54 8.76994 12.6C8.84994 12.66 8.92994 12.69 9.00994 12.69ZM9.00994 5.31002C9.12994 5.31002 9.21994 5.28002 9.27994 5.22002C9.33994 5.16002 9.36994 5.09002 9.36994 5.01002V3.33002C9.36994 3.21002 9.30994 3.12002 9.18994 3.06002C9.06994 3.00002 8.94994 3.00002 8.82994 3.06002C8.70994 3.12002 8.64994 3.21002 8.64994 3.33002V5.01002C8.64994 5.09002 8.68994 5.16002 8.76994 5.22002C8.84994 5.28002 8.92994 5.31002 9.00994 5.31002ZM9.00994 9.03002C9.12994 9.03002 9.21994 8.99002 9.27994 8.91002C9.33994 8.83002 9.36994 8.75002 9.36994 8.67002V7.05002C9.36994 6.93002 9.33994 6.84002 9.27994 6.78002C9.21994 6.72002 9.13994 6.69002 9.03994 6.69002C8.93994 6.69002 8.84994 6.72002 8.76994 6.78002C8.68994 6.84002 8.64994 6.93002 8.64994 7.05002V8.67002C8.64994 8.75002 8.68994 8.83002 8.76994 8.91002C8.84994 8.99002 8.92994 9.03002 9.00994 9.03002ZM11.4699 5.31002C11.5499 5.31002 11.6299 5.28002 11.7099 5.22002C11.7899 5.16002 11.8299 5.09002 11.8299 5.01002V3.33002C11.8299 3.25002 11.7899 3.17002 11.7099 3.09002C11.6299 3.01002 11.5499 2.97002 11.4699 2.97002C11.3899 2.97002 11.3099 3.01002 11.2299 3.09002C11.1499 3.17002 11.1099 3.25002 11.1099 3.33002V5.01002C11.1099 5.09002 11.1499 5.16002 11.2299 5.22002C11.3099 5.28002 11.3899 5.31002 11.4699 5.31002ZM11.4699 9.03002C11.5499 9.03002 11.6299 8.99002 11.7099 8.91002C11.7899 8.83002 11.8299 8.75002 11.8299 8.67002V7.05002C11.8299 6.93002 11.7899 6.84002 11.7099 6.78002C11.6299 6.72002 11.5499 6.69002 11.4699 6.69002C11.3899 6.69002 11.3099 6.72002 11.2299 6.78002C11.1499 6.84002 11.1099 6.93002 11.1099 7.05002V8.67002C11.1099 8.75002 11.1499 8.83002 11.2299 8.91002C11.3099 8.99002 11.3899 9.03002 11.4699 9.03002ZM11.4699 12.69C11.5499 12.69 11.6299 12.66 11.7099 12.6C11.7899 12.54 11.8299 12.45 11.8299 12.33V10.71C11.8299 10.59 11.7899 10.5 11.7099 10.44C11.6299 10.38 11.5499 10.35 11.4699 10.35C11.3899 10.35 11.3099 10.38 11.2299 10.44C11.1499 10.5 11.1099 10.59 11.1099 10.71V12.33C11.1099 12.45 11.1499 12.54 11.2299 12.6C11.3099 12.66 11.3899 12.69 11.4699 12.69ZM15.5499 14.01H15.8499C15.9299 14.01 15.9999 13.98 16.0599 13.92C16.1199 13.86 16.1499 13.78 16.1499 13.68C16.1499 13.58 16.1199 13.5 16.0599 13.44C15.9999 13.38 15.9299 13.35 15.8499 13.35H15.5499C15.4299 13.35 15.3399 13.38 15.2799 13.44C15.2199 13.5 15.1899 13.58 15.1899 13.68C15.1899 13.78 15.2199 13.86 15.2799 13.92C15.3399 13.98 15.4299 14.01 15.5499 14.01ZM15.5499 12.03H15.8499C15.9299 12.03 15.9999 12 16.0599 11.94C16.1199 11.88 16.1499 11.8 16.1499 11.7C16.1499 11.6 16.1199 11.51 16.0599 11.43C15.9999 11.35 15.9299 11.31 15.8499 11.31H15.5499C15.4299 11.31 15.3399 11.35 15.2799 11.43C15.2199 11.51 15.1899 11.6 15.1899 11.7C15.1899 11.8 15.2199 11.88 15.2799 11.94C15.3399 12 15.4299 12.03 15.5499 12.03ZM15.5499 15.99H15.8499C15.9299 15.99 15.9999 15.95 16.0599 15.87C16.1199 15.79 16.1499 15.71 16.1499 15.63C16.1499 15.55 16.1199 15.47 16.0599 15.39C15.9999 15.31 15.9299 15.27 15.8499 15.27H15.5499C15.4299 15.27 15.3399 15.31 15.2799 15.39C15.2199 15.47 15.1899 15.55 15.1899 15.63C15.1899 15.71 15.2199 15.79 15.2799 15.87C15.3399 15.95 15.4299 15.99 15.5499 15.99ZM4.86994 10.05H5.16994C5.24994 10.05 5.31994 10.02 5.37994 9.96002C5.43994 9.90002 5.46994 9.82002 5.46994 9.72002C5.46994 9.62002 5.43994 9.54002 5.37994 9.48002C5.31994 9.42002 5.24994 9.39002 5.16994 9.39002H4.86994C4.74994 9.39002 4.65994 9.42002 4.59994 9.48002C4.53994 9.54002 4.50994 9.62002 4.50994 9.72002C4.50994 9.82002 4.53994 9.90002 4.59994 9.96002C4.65994 10.02 4.74994 10.05 4.86994 10.05ZM4.86994 8.07002H5.16994C5.24994 8.07002 5.31994 8.04002 5.37994 7.98002C5.43994 7.92002 5.46994 7.84002 5.46994 7.74002C5.46994 7.64002 5.43994 7.56002 5.37994 7.50002C5.31994 7.44002 5.24994 7.41002 5.16994 7.41002H4.86994C4.74994 7.41002 4.65994 7.44002 4.59994 7.50002C4.53994 7.56002 4.50994 7.64002 4.50994 7.74002C4.50994 7.84002 4.53994 7.92002 4.59994 7.98002C4.65994 8.04002 4.74994 8.07002 4.86994 8.07002ZM4.86994 12.03H5.16994C5.24994 12.03 5.31994 12 5.37994 11.94C5.43994 11.88 5.46994 11.8 5.46994 11.7C5.46994 11.6 5.43994 11.51 5.37994 11.43C5.31994 11.35 5.24994 11.31 5.16994 11.31H4.86994C4.70994 11.31 4.59994 11.37 4.53994 11.49C4.47994 11.61 4.47994 11.73 4.53994 11.85C4.59994 11.97 4.70994 12.03 4.86994 12.03ZM17.4699 8.49002H14.2299V1.05002C14.2299 0.930017 14.1999 0.840017 14.1399 0.780018C14.0799 0.720018 13.9899 0.690018 13.8699 0.690018H6.60994C6.52994 0.690018 6.44994 0.730017 6.36994 0.810017C6.28994 0.890017 6.24994 0.970018 6.24994 1.05002V5.37002H3.36994C3.28994 5.37002 3.20994 5.40002 3.12994 5.46002C3.04994 5.52002 3.00994 5.61002 3.00994 5.73002V9.99002C3.00994 10.11 3.04994 10.2 3.12994 10.26C3.20994 10.32 3.29994 10.35 3.39994 10.35C3.49994 10.35 3.57994 10.32 3.63994 10.26C3.69994 10.2 3.72994 10.11 3.72994 9.99002V6.03002H6.24994V17.61H3.72994C3.60994 17.61 3.51994 17.65 3.45994 17.73C3.39994 17.81 3.36994 17.9 3.36994 18C3.36994 18.1 3.39994 18.18 3.45994 18.24C3.51994 18.3 3.60994 18.33 3.72994 18.33H16.2699C16.7099 18.33 17.0799 18.18 17.3799 17.88C17.6799 17.58 17.8299 17.23 17.8299 16.83V8.85002C17.8299 8.77002 17.7899 8.69002 17.7099 8.61002C17.6299 8.53002 17.5499 8.49002 17.4699 8.49002ZM9.36994 17.61V14.91H11.1099V17.61H9.36994ZM13.5099 17.61H11.8299V14.55C11.8299 14.43 11.7899 14.34 11.7099 14.28C11.6299 14.22 11.5499 14.19 11.4699 14.19H9.00994C8.92994 14.19 8.84994 14.22 8.76994 14.28C8.68994 14.34 8.64994 14.43 8.64994 14.55V17.61H6.96994V1.35002H13.5099V17.61ZM17.1099 16.83C17.1099 17.03 17.0299 17.22 16.8699 17.4C16.7099 17.58 16.5099 17.67 16.2699 17.67H14.2299V9.21002H17.1099V16.83ZM4.32994 13.53C4.32994 12.93 4.02994 12.35 3.42994 11.79C3.10994 11.47 2.76994 11.21 2.40994 11.01C2.32994 10.97 2.22994 10.97 2.10994 11.01C1.78994 11.21 1.44994 11.47 1.08994 11.79C0.489941 12.35 0.189941 12.94 0.189941 13.56C0.189941 14.18 0.349941 14.73 0.669941 15.21C0.989941 15.69 1.40994 15.97 1.92994 16.05V17.97C1.92994 18.09 1.95994 18.18 2.01994 18.24C2.07994 18.3 2.15994 18.33 2.25994 18.33C2.35994 18.33 2.43994 18.3 2.49994 18.24C2.55994 18.18 2.58994 18.09 2.58994 17.97V16.05C3.10994 15.97 3.52994 15.69 3.84994 15.21C4.16994 14.73 4.32994 14.17 4.32994 13.53ZM0.849941 13.53C0.849941 13.21 1.02994 12.85 1.38994 12.45C1.62994 12.21 1.92994 11.97 2.28994 11.73C2.60994 11.97 2.88994 12.21 3.12994 12.45C3.48994 12.85 3.66994 13.21 3.66994 13.53C3.66994 13.97 3.56994 14.36 3.36994 14.7C3.16994 15.04 2.90994 15.25 2.58994 15.33V14.55C2.58994 14.43 2.55994 14.34 2.49994 14.28C2.43994 14.22 2.35994 14.19 2.25994 14.19C2.15994 14.19 2.07994 14.22 2.01994 14.28C1.95994 14.34 1.92994 14.43 1.92994 14.55V15.33C1.60994 15.25 1.34994 15.04 1.14994 14.7C0.949941 14.36 0.849941 13.97 0.849941 13.53Z" fill="#1A1A1A"/>
</svg>
