<svg width="18" height="19" viewBox="0 0 18 19" fill="none" xmlns="http://www.w3.org/2000/svg">
<path d="M2.51995 10.47C2.39995 10.47 2.30995 10.5 2.24995 10.56C2.18995 10.62 2.15995 10.71 2.15995 10.83V17.61C2.15995 17.73 2.18995 17.83 2.24995 17.91C2.30995 17.99 2.39995 18.03 2.51995 18.03H16.02C16.1 18.03 16.18 17.99 16.26 17.91C16.34 17.83 16.38 17.73 16.38 17.61V12.09C16.38 11.97 16.34 11.88 16.26 11.82C16.18 11.76 16.09 11.73 15.99 11.73C15.89 11.73 15.81 11.76 15.75 11.82C15.69 11.88 15.66 11.97 15.66 12.09V17.25H2.87995V10.83C2.87995 10.71 2.83995 10.62 2.75995 10.56C2.67995 10.5 2.59995 10.47 2.51995 10.47ZM4.01995 12.03C3.89995 12.03 3.80995 12.06 3.74995 12.12C3.68995 12.18 3.65995 12.27 3.65995 12.39V17.61C3.65995 17.73 3.68995 17.83 3.74995 17.91C3.80995 17.99 3.89995 18.03 4.01995 18.03H8.15995C8.23995 18.03 8.31995 17.99 8.39995 17.91C8.47995 17.83 8.51995 17.73 8.51995 17.61V13.53C8.51995 13.45 8.47995 13.37 8.39995 13.29C8.31995 13.21 8.22995 13.17 8.12995 13.17C8.02995 13.17 7.93995 13.21 7.85995 13.29C7.77995 13.37 7.73995 13.45 7.73995 13.53V17.25H4.37995V12.75H8.15995C8.23995 12.75 8.31995 12.72 8.39995 12.66C8.47995 12.6 8.51995 12.51 8.51995 12.39C8.51995 12.27 8.47995 12.18 8.39995 12.12C8.31995 12.06 8.23995 12.03 8.15995 12.03H4.01995ZM10.02 12.03C9.89995 12.03 9.80995 12.06 9.74995 12.12C9.68995 12.18 9.65995 12.27 9.65995 12.39V15.75C9.65995 15.87 9.68995 15.96 9.74995 16.02C9.80995 16.08 9.89995 16.11 10.02 16.11H14.52C14.6 16.11 14.68 16.08 14.76 16.02C14.84 15.96 14.88 15.87 14.88 15.75V13.53C14.88 13.45 14.84 13.37 14.76 13.29C14.68 13.21 14.59 13.17 14.49 13.17C14.39 13.17 14.31 13.21 14.25 13.29C14.19 13.37 14.16 13.45 14.16 13.53V15.39H10.38V12.75H14.52C14.6 12.75 14.68 12.72 14.76 12.66C14.84 12.6 14.88 12.51 14.88 12.39C14.88 12.27 14.84 12.18 14.76 12.12C14.68 12.06 14.6 12.03 14.52 12.03H10.02ZM9.23995 8.01003C8.79995 8.01003 8.42995 8.17003 8.12995 8.49003C7.82995 8.81003 7.67995 9.19003 7.67995 9.63003C7.67995 10.07 7.82995 10.45 8.12995 10.77C8.42995 11.09 8.79995 11.25 9.23995 11.25C9.67995 11.25 10.06 11.09 10.38 10.77C10.7 10.45 10.86 10.07 10.86 9.63003C10.86 9.51003 10.82 9.42003 10.74 9.36003C10.66 9.30003 10.57 9.27003 10.47 9.27003C10.37 9.27003 10.28 9.30003 10.2 9.36003C10.12 9.42003 10.08 9.51003 10.08 9.63003C10.08 9.87003 9.99995 10.07 9.83995 10.23C9.67995 10.39 9.47995 10.47 9.23995 10.47C8.99995 10.47 8.79995 10.39 8.63995 10.23C8.47995 10.07 8.39995 9.87003 8.39995 9.63003C8.39995 9.39003 8.47995 9.19003 8.63995 9.03003C8.79995 8.87003 8.99995 8.79003 9.23995 8.79003C9.47995 8.79003 9.67995 8.87003 9.83995 9.03003C9.91995 9.11003 10.01 9.15003 10.11 9.15003C10.21 9.15003 10.3 9.11003 10.38 9.03003C10.46 8.95003 10.5 8.86003 10.5 8.76003C10.5 8.66003 10.46 8.57003 10.38 8.49003C10.06 8.17003 9.67995 8.01003 9.23995 8.01003ZM11.7 13.35C11.54 13.35 11.44 13.43 11.4 13.59L10.98 14.19C10.94 14.31 10.93 14.42 10.95 14.52C10.97 14.62 11.03 14.69 11.13 14.73C11.23 14.77 11.33 14.78 11.43 14.76C11.53 14.74 11.6 14.69 11.64 14.61L12 13.95C12.08 13.87 12.1 13.78 12.06 13.68C12.02 13.58 11.97 13.51 11.91 13.47C11.85 13.43 11.78 13.39 11.7 13.35ZM13.2 13.35C13.04 13.35 12.94 13.43 12.9 13.59L12.48 14.19C12.44 14.31 12.43 14.42 12.45 14.52C12.47 14.62 12.53 14.69 12.63 14.73C12.73 14.77 12.83 14.78 12.93 14.76C13.03 14.74 13.1 14.69 13.14 14.61L13.5 13.95C13.58 13.87 13.6 13.78 13.56 13.68C13.52 13.58 13.47 13.51 13.41 13.47C13.35 13.43 13.28 13.39 13.2 13.35ZM15.42 0.750031C14.78 0.750031 14.22 0.99003 13.74 1.47003C13.26 1.95003 13.02 2.53003 13.02 3.21003C13.02 3.89003 13.26 4.46003 13.74 4.92003C14.22 5.38003 14.79 5.61003 15.45 5.61003C16.11 5.61003 16.68 5.38003 17.16 4.92003C17.64 4.46003 17.88 3.89003 17.88 3.21003C17.88 2.53003 17.64 1.95003 17.16 1.47003C16.68 0.99003 16.1 0.750031 15.42 0.750031ZM15.42 1.53003C15.9 1.53003 16.31 1.69003 16.65 2.01003C16.99 2.33003 17.16 2.73003 17.16 3.21003C17.16 3.69003 16.99 4.09003 16.65 4.41003C16.31 4.73003 15.91 4.89003 15.45 4.89003C14.99 4.89003 14.59 4.73003 14.25 4.41003C13.91 4.09003 13.74 3.69003 13.74 3.21003C13.74 2.73003 13.91 2.33003 14.25 2.01003C14.59 1.69003 14.98 1.53003 15.42 1.53003ZM2.57995 3.93003C2.49995 3.93003 2.41995 3.96003 2.33995 4.02003C2.25995 4.08003 2.21995 4.17003 2.21995 4.29003V8.55003C2.21995 8.63003 2.25995 8.71003 2.33995 8.79003C2.41995 8.87003 2.50995 8.91003 2.60995 8.91003C2.70995 8.91003 2.78995 8.87003 2.84995 8.79003C2.90995 8.71003 2.93995 8.63003 2.93995 8.55003V4.65003H4.43995V6.87003C4.43995 6.99003 4.47995 7.09003 4.55995 7.17003C4.63995 7.25003 4.72995 7.29003 4.82995 7.29003C4.92995 7.29003 5.01995 7.25003 5.09995 7.17003C5.17995 7.09003 5.21995 6.99003 5.21995 6.87003V4.29003C5.21995 4.17003 5.17995 4.08003 5.09995 4.02003C5.01995 3.96003 4.93995 3.93003 4.85995 3.93003H2.57995ZM1.85995 2.55003C1.73995 2.55003 1.63995 2.59003 1.55995 2.67003C1.47995 2.75003 1.43995 2.83003 1.43995 2.91003V4.29003C1.43995 4.37003 1.47995 4.45003 1.55995 4.53003C1.63995 4.61003 1.73995 4.65003 1.85995 4.65003H5.57995C5.69995 4.65003 5.78995 4.61003 5.84995 4.53003C5.90995 4.45003 5.93995 4.37003 5.93995 4.29003V2.91003C5.93995 2.83003 5.90995 2.75003 5.84995 2.67003C5.78995 2.59003 5.69995 2.55003 5.57995 2.55003H1.85995ZM2.21995 3.33003H5.21995V3.93003H2.21995V3.33003ZM5.75995 15.03C5.75995 15.15 5.70995 15.26 5.60995 15.36C5.50995 15.46 5.39995 15.51 5.27995 15.51C5.15995 15.51 5.04995 15.46 4.94995 15.36C4.84995 15.26 4.79995 15.14 4.79995 15C4.79995 14.86 4.84995 14.75 4.94995 14.67C5.04995 14.59 5.15995 14.55 5.27995 14.55C5.39995 14.55 5.50995 14.59 5.60995 14.67C5.70995 14.75 5.75995 14.87 5.75995 15.03ZM9.17995 3.87003C8.97995 3.87003 8.79995 3.93003 8.63995 4.05003L1.13995 9.21003C0.979951 9.33003 0.879951 9.50003 0.839951 9.72003C0.799951 9.94003 0.839951 10.13 0.959951 10.29L1.37995 10.89C1.49995 11.05 1.65995 11.15 1.85995 11.19C2.05995 11.23 2.25995 11.19 2.45995 11.07L9.23995 6.33003L16.08 11.07C16.24 11.19 16.43 11.23 16.65 11.19C16.87 11.15 17.04 11.05 17.16 10.89L17.58 10.29C17.7 10.13 17.74 9.94003 17.7 9.72003C17.66 9.50003 17.56 9.33003 17.4 9.21003L9.89995 4.05003C9.69995 3.93003 9.45995 3.87003 9.17995 3.87003ZM9.23995 4.59003C9.31995 4.59003 9.39995 4.61003 9.47995 4.65003L16.92 9.87003L16.5 10.47L9.47995 5.61003C9.31995 5.49003 9.17995 5.49003 9.05995 5.61003L1.97995 10.47L1.55995 9.87003L9.05995 4.65003C9.09995 4.61003 9.15995 4.59003 9.23995 4.59003Z" fill="#1A1A1A"/>
</svg>
