<svg width="11" height="13" viewBox="0 0 11 13" fill="none" xmlns="http://www.w3.org/2000/svg">
<path d="M8.11942 9.23667V0.147499H10.7813V12.0393H8.2734L8.11942 9.23667ZM8.49338 6.76377L9.3843 6.7418C9.3843 7.54047 9.29633 8.27682 9.12038 8.95092C8.94435 9.61767 8.673 10.2002 8.3064 10.6984C7.93972 11.1893 7.47045 11.574 6.89843 11.8524C6.32648 12.1235 5.64083 12.2591 4.84155 12.2591C4.26225 12.2591 3.73065 12.1748 3.24667 12.0063C2.7627 11.8377 2.34473 11.5776 1.99275 11.226C1.64805 10.8742 1.38045 10.4163 1.1898 9.85212C0.999073 9.28797 0.903748 8.61387 0.903748 7.8299V0.147499H3.55462V7.85187C3.55462 8.28417 3.606 8.64687 3.7086 8.9399C3.81128 9.22565 3.95063 9.4565 4.12658 9.6323C4.3026 9.80817 4.50795 9.93275 4.74255 10.006C4.97722 10.0793 5.22652 10.1159 5.49052 10.1159C6.24585 10.1159 6.83977 9.96935 7.27245 9.67632C7.7124 9.37587 8.0241 8.9729 8.2074 8.46732C8.39805 7.96175 8.49338 7.39392 8.49338 6.76377Z" fill="#A79797"/>
</svg>
