<svg width="12" height="17" viewBox="0 0 12 17" fill="none" xmlns="http://www.w3.org/2000/svg">
<path d="M8.29406 11.2364V0.0370483H11.0439V11.2364C11.0439 12.2988 10.8166 13.2037 10.362 13.951C9.90731 14.6984 9.28773 15.2699 8.50308 15.6656C7.71843 16.0613 6.82751 16.2591 5.83023 16.2591C4.81091 16.2591 3.90528 16.0869 3.11336 15.7425C2.32871 15.3982 1.71281 14.8706 1.26543 14.1598C0.818132 13.4491 0.594482 12.5479 0.594482 11.4562H3.36633C3.36633 12.0863 3.46533 12.5956 3.66333 12.9838C3.86868 13.3649 4.15466 13.6433 4.52126 13.8192C4.89528 13.9877 5.33156 14.0719 5.83023 14.0719C6.30686 14.0719 6.72851 13.9657 7.09518 13.7532C7.46913 13.5334 7.76246 13.2147 7.97508 12.797C8.18778 12.3721 8.29406 11.8519 8.29406 11.2364Z" fill="#A79797"/>
</svg>
