<svg width="8" height="16" viewBox="0 0 8 16" fill="none" xmlns="http://www.w3.org/2000/svg">
<path d="M7.54703 3.1475V5.08182H0.837524V3.1475H7.54703ZM2.77328 0.235023H5.42453V11.7531C5.42453 12.1194 5.47553 12.4015 5.57828 12.5994C5.68853 12.7899 5.83853 12.918 6.02903 12.984C6.22028 13.05 6.44378 13.083 6.70028 13.083C6.88328 13.083 7.05953 13.0719 7.22828 13.05C7.39703 13.028 7.53278 13.006 7.63553 12.984L7.64603 15.0063C7.42628 15.0722 7.16978 15.1308 6.87653 15.1821C6.59003 15.2334 6.26003 15.2591 5.88653 15.2591C5.27753 15.2591 4.73903 15.1528 4.26953 14.9403C3.80003 14.7205 3.43328 14.3652 3.16928 13.8742C2.90528 13.3833 2.77328 12.7312 2.77328 11.9179V0.235023Z" fill="#A79797"/>
</svg>
