<svg width="11" height="14" viewBox="0 0 11 14" fill="none" xmlns="http://www.w3.org/2000/svg">
<path d="M8.17449 9.819C8.17449 9.55522 8.10849 9.3171 7.97649 9.10462C7.84449 8.8848 7.59174 8.68702 7.21749 8.51115C6.85149 8.33527 6.30849 8.1741 5.58999 8.02755C4.95924 7.88835 4.38023 7.7235 3.85201 7.533C3.33136 7.33515 2.88406 7.09702 2.51003 6.81862C2.13608 6.54015 1.84643 6.21045 1.64108 5.82945C1.43581 5.44845 1.33313 5.00887 1.33313 4.51057C1.33313 4.02705 1.43948 3.5691 1.65211 3.1368C1.86473 2.7045 2.16908 2.3235 2.56508 1.9938C2.96101 1.66402 3.44131 1.40392 4.00599 1.21342C4.57824 1.02292 5.21573 0.927673 5.91998 0.927673C6.91748 0.927673 7.77173 1.0962 8.48273 1.43325C9.20123 1.76295 9.75099 2.21355 10.1327 2.78505C10.5137 3.34927 10.705 3.9867 10.705 4.69747H8.05373C8.05373 4.3824 7.97274 4.0893 7.81149 3.81817C7.65774 3.53977 7.42298 3.31627 7.10798 3.14775C6.79223 2.97195 6.39623 2.88397 5.91998 2.88397C5.46548 2.88397 5.08749 2.95725 4.78674 3.1038C4.49349 3.243 4.27373 3.42622 4.12673 3.65332C3.98768 3.8805 3.91801 4.12957 3.91801 4.4007C3.91801 4.59855 3.95469 4.77802 4.02774 4.9392C4.10874 5.0931 4.24074 5.23597 4.42374 5.3679C4.60749 5.4924 4.85649 5.60962 5.17224 5.71957C5.49474 5.82945 5.89824 5.93572 6.38199 6.03825C7.29099 6.22875 8.07174 6.47422 8.72499 6.77467C9.38499 7.0677 9.89048 7.4487 10.243 7.91767C10.5947 8.3793 10.771 8.96542 10.771 9.67612C10.771 10.2037 10.657 10.6873 10.4297 11.1269C10.21 11.5592 9.88673 11.9365 9.46148 12.2589C9.03623 12.574 8.52699 12.8194 7.93299 12.9953C7.34649 13.1711 6.68648 13.2591 5.95298 13.2591C4.87523 13.2591 3.96196 13.0685 3.21406 12.6875C2.46609 12.2992 1.89774 11.8046 1.50909 11.2038C1.12779 10.5957 0.937134 9.96555 0.937134 9.31342H3.50003C3.52936 9.80437 3.66503 10.1964 3.90698 10.4894C4.15598 10.7752 4.46424 10.984 4.83099 11.1159C5.20524 11.2405 5.58999 11.3027 5.98599 11.3027C6.46224 11.3027 6.86199 11.2405 7.18449 11.1159C7.50774 10.984 7.75298 10.8082 7.92173 10.5883C8.09048 10.3612 8.17449 10.1047 8.17449 9.819Z" fill="#A79797"/>
</svg>
