<svg width="18" height="14" viewBox="0 0 18 14" fill="none" xmlns="http://www.w3.org/2000/svg">
<path d="M3.0188 3.56542V13.0393H0.367554V1.1475H2.8643L3.0188 3.56542ZM2.5898 6.65377L1.68755 6.64275C1.68755 5.82217 1.7903 5.06377 1.9958 4.3677C2.20055 3.67162 2.5013 3.0672 2.8973 2.55427C3.2933 2.03407 3.78455 1.63477 4.37105 1.3563C4.96505 1.07055 5.6513 0.927673 6.4283 0.927673C6.9713 0.927673 7.46555 1.0083 7.9133 1.16947C8.3678 1.32337 8.76005 1.56877 9.09005 1.90582C9.42755 2.24287 9.68405 2.67517 9.8603 3.20272C10.0433 3.73027 10.1348 4.3677 10.1348 5.11507V13.0393H7.4843V5.34585C7.4843 4.76707 7.39655 4.3128 7.2203 3.98302C7.05155 3.65332 6.8063 3.41887 6.48305 3.27967C6.16805 3.13312 5.79005 3.05985 5.35055 3.05985C4.8518 3.05985 4.42655 3.1551 4.0748 3.3456C3.7298 3.5361 3.44779 3.7962 3.22729 4.1259C3.00754 4.45567 2.8463 4.83667 2.74355 5.26897C2.6408 5.70127 2.5898 6.16282 2.5898 6.65377ZM9.9698 5.95035L8.72705 6.22515C8.72705 5.5071 8.82605 4.82932 9.02405 4.1919C9.22955 3.54712 9.52655 2.9829 9.91505 2.4993C10.3111 2.00842 10.7986 1.62375 11.3783 1.34535C11.9573 1.06687 12.621 0.927673 13.3688 0.927673C13.9778 0.927673 14.5201 1.01197 14.9971 1.1805C15.4808 1.34167 15.8918 1.5981 16.2285 1.94977C16.566 2.30152 16.8225 2.75947 16.9988 3.32362C17.175 3.8805 17.2628 4.5546 17.2628 5.34585V13.0393H14.6011V5.3349C14.6011 4.73407 14.5125 4.26877 14.337 3.93907C14.1683 3.60937 13.926 3.38227 13.611 3.2577C13.2953 3.12577 12.918 3.05985 12.4778 3.05985C12.0675 3.05985 11.7045 3.1368 11.3888 3.29062C11.0813 3.43717 10.821 3.64605 10.608 3.9171C10.3958 4.18087 10.2338 4.48492 10.1243 4.82932C10.0215 5.17372 9.9698 5.54737 9.9698 5.95035Z" fill="#A79797"/>
</svg>
